<mxfile host="app.diagrams.net" modified="2020-10-22T10:31:41.258Z" agent="5.0 (Windows NT 10.0; Win64; x64) AppleWebKit/537.36 (KHTML, like Gecko) Chrome/72.0.3626.119 Safari/537.36" etag="WWBCzMlrRIblURrkttFM" version="13.8.0" type="github">
  <diagram id="xY7UBoQyRRJtM02vzFcS" name="第 1 页">
    <mxGraphModel dx="1422" dy="762" grid="1" gridSize="10" guides="1" tooltips="1" connect="1" arrows="1" fold="1" page="1" pageScale="1" pageWidth="827" pageHeight="1169" math="0" shadow="0">
      <root>
        <mxCell id="0" />
        <mxCell id="1" parent="0" />
        <mxCell id="fEkJ1XnK79Wk73MfpjPa-1" value="tb_link_button" style="rounded=0;whiteSpace=wrap;html=1;" vertex="1" parent="1">
          <mxGeometry x="260" y="310" width="120" height="60" as="geometry" />
        </mxCell>
        <mxCell id="fEkJ1XnK79Wk73MfpjPa-6" style="edgeStyle=orthogonalEdgeStyle;rounded=0;orthogonalLoop=1;jettySize=auto;html=1;entryX=0.5;entryY=1;entryDx=0;entryDy=0;" edge="1" parent="1" source="fEkJ1XnK79Wk73MfpjPa-2" target="fEkJ1XnK79Wk73MfpjPa-1">
          <mxGeometry relative="1" as="geometry" />
        </mxCell>
        <mxCell id="fEkJ1XnK79Wk73MfpjPa-2" value="tb_link_param" style="rounded=0;whiteSpace=wrap;html=1;" vertex="1" parent="1">
          <mxGeometry x="260" y="460" width="120" height="60" as="geometry" />
        </mxCell>
        <mxCell id="fEkJ1XnK79Wk73MfpjPa-5" style="edgeStyle=orthogonalEdgeStyle;rounded=0;orthogonalLoop=1;jettySize=auto;html=1;entryX=1;entryY=0.5;entryDx=0;entryDy=0;" edge="1" parent="1" source="fEkJ1XnK79Wk73MfpjPa-3" target="fEkJ1XnK79Wk73MfpjPa-1">
          <mxGeometry relative="1" as="geometry" />
        </mxCell>
        <mxCell id="fEkJ1XnK79Wk73MfpjPa-3" value="new_fund" style="rounded=0;whiteSpace=wrap;html=1;" vertex="1" parent="1">
          <mxGeometry x="520" y="310" width="120" height="60" as="geometry" />
        </mxCell>
        <mxCell id="fEkJ1XnK79Wk73MfpjPa-7" style="edgeStyle=orthogonalEdgeStyle;rounded=0;orthogonalLoop=1;jettySize=auto;html=1;" edge="1" parent="1" source="fEkJ1XnK79Wk73MfpjPa-4" target="fEkJ1XnK79Wk73MfpjPa-3">
          <mxGeometry relative="1" as="geometry" />
        </mxCell>
        <mxCell id="fEkJ1XnK79Wk73MfpjPa-8" style="edgeStyle=orthogonalEdgeStyle;rounded=0;orthogonalLoop=1;jettySize=auto;html=1;" edge="1" parent="1" source="fEkJ1XnK79Wk73MfpjPa-4" target="fEkJ1XnK79Wk73MfpjPa-2">
          <mxGeometry relative="1" as="geometry" />
        </mxCell>
        <mxCell id="fEkJ1XnK79Wk73MfpjPa-4" value="fund_param_value" style="rounded=0;whiteSpace=wrap;html=1;" vertex="1" parent="1">
          <mxGeometry x="520" y="460" width="120" height="60" as="geometry" />
        </mxCell>
      </root>
    </mxGraphModel>
  </diagram>
</mxfile>
